<?xml version="1.0" standalone="no"?>
<!DOCTYPE svg PUBLIC "-//W3C//DTD SVG 20010904//EN"
 "http://www.w3.org/TR/2001/REC-SVG-20010904/DTD/svg10.dtd">
<svg version="1.0" xmlns="http://www.w3.org/2000/svg"
 width="700.000000pt" height="700.000000pt" viewBox="0 0 700.000000 700.000000"
 preserveAspectRatio="xMidYMid meet">
<metadata>
Created by potrace 1.11, written by Peter Selinger 2001-2013
</metadata>
<g transform="translate(0.000000,700.000000) scale(0.100000,-0.100000)"
fill="#000000" stroke="none">
<path d="M3075 6399 c-698 -103 -1298 -434 -1785 -984 -71 -79 -270 -354 -270
-372 0 -3 -8 -17 -19 -31 -10 -15 -33 -54 -51 -87 -29 -54 -44 -83 -85 -165
-39 -77 -138 -333 -149 -385 -2 -5 -10 -34 -19 -63 -9 -29 -27 -103 -41 -165
-23 -106 -29 -134 -41 -224 -3 -21 -7 -47 -10 -58 -32 -150 -19 -722 19 -855
3 -8 7 -33 11 -55 29 -199 145 -548 257 -769 193 -383 433 -681 783 -975 166
-140 459 -313 705 -419 167 -72 473 -160 615 -178 28 -3 53 -8 56 -10 3 -2 34
-6 70 -10 35 -3 69 -7 74 -8 12 -1 19 5814 8 5825 -5 3 -62 -2 -128 -12z"/>
<path d="M3800 5107 l0 -1313 1307 1 1308 0 -3 45 c-2 25 -5 52 -7 60 -2 8 -7
33 -10 55 -9 68 -21 128 -46 235 -95 403 -290 800 -560 1141 -86 109 -318 347
-404 415 -27 21 -52 41 -55 44 -25 28 -302 220 -316 220 -4 0 -15 6 -23 14
-24 22 -255 139 -352 179 -187 77 -413 146 -564 172 -16 3 -55 10 -85 16 -30
5 -80 12 -110 15 -30 3 -61 7 -67 9 -10 4 -13 -263 -13 -1308z"/>
<path d="M3804 3201 c-2 -2 -4 -593 -4 -1312 0 -1042 3 -1308 13 -1304 6 2 37
6 67 9 56 6 210 32 239 40 9 3 32 8 51 11 19 3 49 10 65 15 17 5 84 26 150 46
467 141 906 417 1255 790 51 55 78 86 176 204 76 92 228 335 300 478 130 260
235 577 270 812 3 19 7 42 9 50 7 25 18 137 16 155 -1 10 -2597 16 -2607 6z"/>
</g>
</svg>
